# xmcd CD database file
# Copyright (C) 1993-1998 Ti Kan
# 
# Track frame offsets:
#     183
#     13100
#     28913
#     39490
#     66720
#     79960
#     91973
#     103988
#     124055
#     140718
#     155953
#     177498
# 
# Disc length: 2549 seconds
# 
# Revision: 2
# Processed by: cddbd v1.4b41PL1 Copyright (c) Steve Scherf et al.
# Submitted via: DiscPlay 4.0.4
# 
DISCID=b709f30c
DTITLE=Mathilde Santing - Breast And Brow
DYEAR=1900
DGENRE=
TTITLE0=Close Watch
TTITLE1=It Wouldn't Have Made Any Difference
TTITLE2=Think About Your Troubles
TTITLE3=We Could Send Letters
TTITLE4=Is It For Now Or For Always
TTITLE5=It Can Only Mean I Love You
TTITLE6=Stone Is Not Stone
TTITLE7=That's All
TTITLE8=Spring Is Here
TTITLE9=I'm Gonna Laugh You Right Out O My Life
TTITLE10=Sweet Nothings
TTITLE11=Torch Song
EXTD=
EXTT0=
EXTT1=
EXTT2=
EXTT3=
EXTT4=
EXTT5=
EXTT6=
EXTT7=
EXTT8=
EXTT9=
EXTT10=
EXTT11=
PLAYORDER=
